<?xml version="1.0" encoding="utf-8"?>
<svg viewBox="557.116 172.116 84.748 87.168" width="84.748" height="87.168" xmlns="http://www.w3.org/2000/svg">
  <g transform="matrix(1, 0, 0, 1, 341.2548828125, -3.531329870223999)">
    <rect x="219.447" y="215.129" width="77.007" height="38.066" style="stroke: rgb(0, 0, 0); stroke-width: 0px; fill: rgb(62, 130, 191);"/>
    <rect x="223.602" y="196.095" width="12.033" height="19.908" style="stroke: rgb(0, 0, 0); stroke-width: 0px; fill: rgb(62, 130, 191);"/>
    <rect x="281.905" y="196.205" width="12.033" height="19.908" style="stroke: rgb(0, 0, 0); stroke-width: 0px; fill: rgb(62, 130, 191);"/>
    <rect x="232.38" y="206.132" width="14.439" height="13.564" style="stroke: rgb(0, 0, 0); stroke-width: 0px; fill: rgb(62, 130, 191);"/>
    <rect x="270.072" y="204.733" width="14.439" height="13.564" style="stroke: rgb(0, 0, 0); stroke-width: 0px; fill: rgb(62, 130, 191);"/>
  </g>
  <path style="stroke-width: 0px; stroke: rgb(152, 93, 93); fill: rgb(78, 89, 111);" d="M 562.832 185.879 C 567.551 192.96 574.169 195.726 581.782 199.53 C 582.674 199.976 583.64 201.552 584.511 202.42 C 585.881 203.79 588.013 204.636 589.33 205.955 C 589.875 206.5 590.775 207.773 591.578 208.042 C 592.526 208.359 593.259 210.18 594.148 210.771 C 596.104 212.076 599.534 213.688 602.016 212.861 C 604.761 211.945 606.217 209.605 608.922 208.523 C 610.789 207.779 614.557 206.175 615.666 204.51 C 616.292 203.57 617.522 202.033 618.718 201.136 C 623.109 197.843 626.701 194.44 630.604 190.537 C 633.147 187.993 635.772 185.984 637.187 183.15 C 637.539 182.444 637.045 180.437 636.706 180.099 C 631.893 175.285 622.301 178.331 615.989 178.331 C 602.8 178.331 589.496 178.17 576.321 178.17 C 573.205 178.17 569.23 177.577 566.203 178.331 C 565.606 178.482 563.594 178.729 563.312 179.296 C 563.092 179.739 563.31 180.268 563.151 180.741 C 562.993 181.222 561.368 184.096 562.348 185.076 C 562.517 185.245 563.954 186.336 563.954 186.363"/>
  <path d="M 565.59 259.284 C 563.259 259.284 561.263 258.217 559.606 256.082 C 557.946 253.949 557.116 251.384 557.116 248.389 L 557.116 183.01 C 557.116 180.015 557.946 177.448 559.606 175.315 C 561.263 173.182 563.259 172.116 565.59 172.116 L 605.051 172.116 L 633.389 172.116 C 635.721 172.116 637.714 173.182 639.374 175.315 C 641.034 177.448 641.864 180.015 641.864 183.01 L 641.864 248.389 C 641.864 251.384 641.034 253.949 639.374 256.082 C 637.714 258.217 635.721 259.284 633.389 259.284 L 565.59 259.284 Z M 599.488 221.147 L 565.59 193.905 L 565.59 248.389 L 633.389 248.389 L 633.389 193.905 L 599.488 221.147 Z M 599.488 210.252 L 633.389 183.01 L 565.59 183.01 L 599.488 210.252 Z M 565.59 193.905 L 565.59 183.01 L 565.59 248.389 L 565.59 193.905 Z" style="fill: rgb(36, 38, 43);"/>
</svg>